<?xml version="1.0" encoding="utf-8"?>
<!-- Generator: Adobe Illustrator 26.0.1, SVG Export Plug-In . SVG Version: 6.00 Build 0)  -->
<svg version="1.1" id="logo" xmlns="http://www.w3.org/2000/svg" xmlns:xlink="http://www.w3.org/1999/xlink" x="0px" y="0px"
	 viewBox="0 0 600 600" style="enable-background:new 0 0 600 600;" xml:space="preserve">
<style type="text/css">
	.st0{fill:#0C1516;}
	.st1{font-family:'Montserrat-Regular';}
	.st2{font-size:107.045px;}
	.st3{font-size:70.3428px;}
	.st4{fill:#44C2C7;}
	.st5{fill:#C7E8EC;}
	.st6{clip-path:url(#SVGID_00000149369766449904684280000013418263067879587739_);fill:#EDF7F8;}
	.st7{fill:#CBDB2C;}
	.st8{fill:#EFF2C0;}
	.st9{clip-path:url(#SVGID_00000131357002667034112370000013166026694516268986_);fill:#FAFBEB;}
	.st10{fill:#EC1E3C;}
	.st11{fill:#F9BBC3;}
	.st12{clip-path:url(#SVGID_00000104688572736597294970000013560909168470978724_);fill:#FDE8EA;}
	.st13{clip-path:url(#SVGID_00000174560916668956220920000010051028899343867583_);fill:#EDF7F8;}
</style>
<text transform="matrix(1 0 0 1 60.7853 414.1189)" class="st0 st1 st2">THAMES</text>
<text transform="matrix(1 0 0 1 137.3175 481.2227)" class="st0 st1 st3">LIBRARY</text>
<g id="Layer_3_copy_4">
	<path class="st4" d="M443.53,312.81H165.19c-12.29,0-22.26-9.96-22.26-22.26v0c0-12.29,9.96-22.26,22.26-22.26h278.35v4.54
		l-15.1,17.72l15.1,17.72V312.81z"/>
	<path class="st5" d="M439.19,290.56c0-7.23,1.71-13.65,4.34-17.72v-0.54h-278.1c-10.2,0-18.5,8.19-18.5,18.26
		c0,10.07,8.3,18.26,18.5,18.26h278.1v-0.54C440.89,304.21,439.19,297.79,439.19,290.56z"/>
	<g>
		<defs>
			<path id="SVGID_1_" d="M439.19,290.56c0-7.23,1.71-13.65,4.34-17.72v-0.54h-278.1c-10.2,0-18.5,8.19-18.5,18.26
				c0,10.07,8.3,18.26,18.5,18.26h278.1v-0.54C440.89,304.21,439.19,297.79,439.19,290.56z"/>
		</defs>
		<clipPath id="SVGID_00000064320932121769027280000011657300064170749591_">
			<use xlink:href="#SVGID_1_"  style="overflow:visible;"/>
		</clipPath>
		<path style="clip-path:url(#SVGID_00000064320932121769027280000011657300064170749591_);fill:#EDF7F8;" d="M441.18,294.56
			c0-7.23,1.71-13.65,4.34-17.72v-0.54h-278.1c-10.2,0-18.5,8.19-18.5,18.26c0,10.07,8.3,18.26,18.5,18.26h278.1v-0.54
			C442.88,308.21,441.18,301.79,441.18,294.56z"/>
	</g>
</g>
<g id="Layer_3_copy">
	<path class="st7" d="M458.74,268.3H109.7l0-4.06l6.2-7.69l-6.2-7.75l0-4h349.04c6.49,0,11.75,5.26,11.75,11.75v0
		C470.49,263.04,465.23,268.3,458.74,268.3z"/>
	<path class="st8" d="M458.65,248.8H109.7v0.06c0.89,2.06,1.43,4.75,1.43,7.69s-0.54,5.63-1.43,7.69v0.06h348.95
		c4.32,0,7.84-3.48,7.84-7.75S462.98,248.8,458.65,248.8z"/>
	<g>
		<defs>
			<path id="SVGID_00000026157500875906717930000003363545442310528157_" d="M458.65,248.8H109.7v0.06
				c0.89,2.06,1.43,4.75,1.43,7.69s-0.54,5.63-1.43,7.69v0.06h348.95c4.32,0,7.84-3.48,7.84-7.75S462.98,248.8,458.65,248.8z"/>
		</defs>
		<clipPath id="SVGID_00000121277760424077921720000011693850046083842740_">
			<use xlink:href="#SVGID_00000026157500875906717930000003363545442310528157_"  style="overflow:visible;"/>
		</clipPath>
		<path style="clip-path:url(#SVGID_00000121277760424077921720000011693850046083842740_);fill:#FAFBEB;" d="M458.55,251.8H104.96
			v0.06c0.9,2.06,1.45,4.75,1.45,7.69s-0.55,5.63-1.45,7.69v0.06h353.59c4.38,0,7.95-3.48,7.95-7.75S462.93,251.8,458.55,251.8z"/>
	</g>
</g>
<g id="Layer_3">
	<path class="st10" d="M474.32,245.38l-269.64,0c-12.29,0-22.26-9.96-22.26-22.26v0c0-12.29,9.96-22.26,22.26-22.26l269.64,0v4.54
		l-15.1,17.72l15.1,17.72V245.38z"/>
	<path class="st11" d="M469.97,223.13c0-7.23,1.71-13.65,4.34-17.72v-0.54l-269.39,0c-10.2,0-18.5,8.19-18.5,18.26
		c0,10.07,8.3,18.26,18.5,18.26l269.39,0v-0.54C471.68,236.78,469.97,230.36,469.97,223.13z"/>
	<g>
		<defs>
			<path id="SVGID_00000167376783551037873650000011145707058097353901_" d="M469.97,223.13c0-7.23,1.71-13.65,4.34-17.72v-0.54
				l-269.39,0c-10.2,0-18.5,8.19-18.5,18.26c0,10.07,8.3,18.26,18.5,18.26l269.39,0v-0.54
				C471.68,236.78,469.97,230.36,469.97,223.13z"/>
		</defs>
		<clipPath id="SVGID_00000181067166450082555420000006787032498709382820_">
			<use xlink:href="#SVGID_00000167376783551037873650000011145707058097353901_"  style="overflow:visible;"/>
		</clipPath>
		<path style="clip-path:url(#SVGID_00000181067166450082555420000006787032498709382820_);fill:#FDE8EA;" d="M471.96,227.13
			c0-7.23,1.71-13.65,4.34-17.72v-0.54l-269.39,0c-10.2,0-18.5,8.19-18.5,18.26c0,10.07,8.3,18.26,18.5,18.26l269.39,0v-0.54
			C473.67,240.78,471.96,234.36,471.96,227.13z"/>
	</g>
</g>
<g id="Layer_3_copy_3">
	<path class="st4" d="M417.4,200.61H234.17c-8.09,0-14.65-6.56-14.65-14.65v0c0-8.09,6.56-14.65,14.65-14.65H417.4l0,4l-14.82,9.3
		l14.67,12.01L417.4,200.61z"/>
	<path class="st5" d="M415.02,186.09c0-4.26,0.92-8.08,2.38-10.78H234.39c-6,0-10.88,4.78-10.88,10.65s4.88,10.65,10.88,10.65
		h182.87C415.88,193.93,415.02,190.21,415.02,186.09z"/>
	<g>
		<defs>
			<path id="SVGID_00000066507192461141787370000014725363602707856817_" d="M415.02,186.09c0-4.26,0.92-8.08,2.38-10.78H234.39
				c-6,0-10.88,4.78-10.88,10.65s4.88,10.65,10.88,10.65h182.87C415.88,193.93,415.02,190.21,415.02,186.09z"/>
		</defs>
		<clipPath id="SVGID_00000041270676718847023710000011447307941515494291_">
			<use xlink:href="#SVGID_00000066507192461141787370000014725363602707856817_"  style="overflow:visible;"/>
		</clipPath>
		<path style="clip-path:url(#SVGID_00000041270676718847023710000011447307941515494291_);fill:#EDF7F8;" d="M235.68,199.5
			c-6,0-10.88-4.78-10.88-10.65s4.88-10.65,10.88-10.65h183.01v21.3H235.68z"/>
	</g>
</g>
<rect x="60.79" y="312.81" class="st0" width="464.89" height="6"/>
</svg>
